<svg xmlns="http://www.w3.org/2000/svg" width="16" height="16" viewBox="0 0 16 16">
  <path fill="#2e3436" fill-rule="evenodd" d="M6.5 0.75a5.75 5.75 0 1 0 0 11.5a5.75 5.75 0 1 0 0-11.5zM6.5 2.25a4.25 4.25 0 1 1 0 8.5a4.25 4.25 0 1 1 0-8.5z"/>
  <path fill="#2e3436" d="M10.1 11.16l1.06-1.06l4.4 4.4a0.75 0.75 0 0 1-1.06 1.06z"/>
  <rect fill="#2e3436" x="3.9" y="6.6" width="1.3" height="2.4" rx="0.5"/>
  <rect fill="#2e3436" x="5.85" y="4" width="1.3" height="5" rx="0.5"/>
  <rect fill="#2e3436" x="7.8" y="5.4" width="1.3" height="3.6" rx="0.5"/>
</svg>
